<?xml version="1.0" encoding="UTF-8" standalone="no"?>
<!-- Created with Inkscape (http://www.inkscape.org/) -->

<svg
   xmlns:dc="http://purl.org/dc/elements/1.1/"
   xmlns:cc="http://creativecommons.org/ns#"
   xmlns:rdf="http://www.w3.org/1999/02/22-rdf-syntax-ns#"
   xmlns:svg="http://www.w3.org/2000/svg"
   xmlns="http://www.w3.org/2000/svg"
   xmlns:sodipodi="http://sodipodi.sourceforge.net/DTD/sodipodi-0.dtd"
   xmlns:inkscape="http://www.inkscape.org/namespaces/inkscape"
   id="svg4190"
   version="1.1"
   inkscape:version="0.91 r13725"
   width="121.25"
   height="111.25"
   viewBox="0 0 121.25 111.25"
   sodipodi:docname="logo.seite14.svg">
  <metadata
     id="metadata4196">
    <rdf:RDF>
      <cc:Work
         rdf:about="">
        <dc:format>image/svg+xml</dc:format>
        <dc:type
           rdf:resource="http://purl.org/dc/dcmitype/StillImage" />
        <dc:title></dc:title>
      </cc:Work>
    </rdf:RDF>
  </metadata>
  <defs
     id="defs4194">
    <marker
       markerWidth="60.644529"
       markerHeight="229.99999"
       refX="30.322264"
       refY="114.99999"
       orient="auto"
       id="marker4246">
      <text
         transform="scale(0.4330127,2.3094011)"
         sodipodi:linespacing="125%"
         id="text4223"
         y="99.592918"
         x="66.169746"
         style="font-style:normal;font-weight:bold;font-size:138.5640564px;line-height:125%;font-family:Arial;text-align:center;letter-spacing:0px;word-spacing:0px;text-anchor:middle;fill:#000000;fill-opacity:1;stroke:none;stroke-width:1px;stroke-linecap:butt;stroke-linejoin:miter;stroke-opacity:1;-inkscape-font-specification:'Arial Bold';font-stretch:normal;font-variant:normal;"
         xml:space="preserve"><tspan
           style="font-style:normal;font-variant:normal;font-weight:bold;font-stretch:normal;font-family:Arial;-inkscape-font-specification:'Arial Bold';"
           y="99.592918"
           x="66.169762"
           id="tspan4225"
           sodipodi:role="line">14</tspan></text>
    </marker>
    <filter
       style="color-interpolation-filters:sRGB;"
       inkscape:label="Drop Shadow"
       id="filter4350">
      <feFlood
         flood-opacity="0.498039"
         flood-color="rgb(0,0,0)"
         result="flood"
         id="feFlood4352" />
      <feComposite
         in="flood"
         in2="SourceGraphic"
         operator="in"
         result="composite1"
         id="feComposite4354" />
      <feGaussianBlur
         in="composite1"
         stdDeviation="1"
         result="blur"
         id="feGaussianBlur4356" />
      <feOffset
         dx="3"
         dy="3"
         result="offset"
         id="feOffset4358" />
      <feComposite
         in="SourceGraphic"
         in2="offset"
         operator="over"
         result="fbSourceGraphic"
         id="feComposite4360" />
      <feColorMatrix
         result="fbSourceGraphicAlpha"
         in="fbSourceGraphic"
         values="0 0 0 -1 0 0 0 0 -1 0 0 0 0 -1 0 0 0 0 1 0"
         id="feColorMatrix4362" />
      <feFlood
         id="feFlood4364"
         flood-opacity="0.498039"
         flood-color="rgb(0,0,0)"
         result="flood"
         in="fbSourceGraphic" />
      <feComposite
         id="feComposite4366"
         in2="fbSourceGraphic"
         in="flood"
         operator="in"
         result="composite1" />
      <feGaussianBlur
         id="feGaussianBlur4368"
         in="composite1"
         stdDeviation="1"
         result="blur" />
      <feOffset
         id="feOffset4370"
         dx="3"
         dy="3"
         result="offset" />
      <feComposite
         id="feComposite4372"
         in2="offset"
         in="fbSourceGraphic"
         operator="over"
         result="composite2" />
    </filter>
    <filter
       style="color-interpolation-filters:sRGB;"
       inkscape:label="Drop Shadow"
       id="filter4530">
      <feFlood
         flood-opacity="0.498039"
         flood-color="rgb(0,0,0)"
         result="flood"
         id="feFlood4532" />
      <feComposite
         in="flood"
         in2="SourceGraphic"
         operator="in"
         result="composite1"
         id="feComposite4534" />
      <feGaussianBlur
         in="composite1"
         stdDeviation="0.4"
         result="blur"
         id="feGaussianBlur4536" />
      <feOffset
         dx="1"
         dy="1"
         result="offset"
         id="feOffset4538" />
      <feComposite
         in="SourceGraphic"
         in2="offset"
         operator="over"
         result="composite2"
         id="feComposite4540" />
    </filter>
    <filter
       style="color-interpolation-filters:sRGB;"
       inkscape:label="Drop Shadow"
       id="filter4915">
      <feFlood
         flood-opacity="0.498039"
         flood-color="rgb(0,0,0)"
         result="flood"
         id="feFlood4917" />
      <feComposite
         in="flood"
         in2="SourceGraphic"
         operator="in"
         result="composite1"
         id="feComposite4919" />
      <feGaussianBlur
         in="composite1"
         stdDeviation="1.5"
         result="blur"
         id="feGaussianBlur4921" />
      <feOffset
         dx="3"
         dy="3"
         result="offset"
         id="feOffset4923" />
      <feComposite
         in="SourceGraphic"
         in2="offset"
         operator="over"
         result="composite2"
         id="feComposite4925" />
    </filter>
  </defs>
  <sodipodi:namedview
     pagecolor="#ffffff"
     bordercolor="#666666"
     borderopacity="1"
     objecttolerance="10"
     gridtolerance="10"
     guidetolerance="10"
     inkscape:pageopacity="0"
     inkscape:pageshadow="2"
     inkscape:window-width="1280"
     inkscape:window-height="746"
     id="namedview4192"
     showgrid="false"
     inkscape:zoom="3.3941126"
     inkscape:cx="137.34373"
     inkscape:cy="50.99851"
     inkscape:window-x="0"
     inkscape:window-y="25"
     inkscape:window-maximized="1"
     inkscape:current-layer="svg4190" />
  <flowRoot
     xml:space="preserve"
     id="flowRoot4374"
     style="fill:black;stroke:none;stroke-opacity:1;stroke-width:1px;stroke-linejoin:miter;stroke-linecap:butt;fill-opacity:1;font-family:Arial;font-style:normal;font-weight:bold;font-size:12.5px;line-height:125%;letter-spacing:0px;word-spacing:0px;text-anchor:middle;text-align:center;-inkscape-font-specification:'Arial Bold';font-stretch:normal;font-variant:normal;"><flowRegion
       id="flowRegion4376"><rect
         id="rect4378"
         width="59.583332"
         height="13.958333"
         x="6.25"
         y="88.125"
         style="-inkscape-font-specification:'Arial Bold';font-family:Arial;font-weight:bold;font-style:normal;font-stretch:normal;font-variant:normal;" /></flowRegion><flowPara
       id="flowPara4380"></flowPara></flowRoot>  <g
     style="font-style:normal;font-weight:normal;font-size:12.5px;line-height:125%;font-family:sans-serif;text-align:center;letter-spacing:0px;word-spacing:0px;text-anchor:middle;fill:#000000;fill-opacity:1;stroke:none;stroke-width:1px;stroke-linecap:butt;stroke-linejoin:miter;stroke-opacity:1;filter:url(#filter4530)"
     id="text4382"
     transform="translate(0.625,-1.0416667)"
     inkscape:export-xdpi="144.31914"
     inkscape:export-ydpi="144.31914">
    <path
       d="m 11.491699,95.455742 1.123047,0 1.403809,5.334468 1.397705,-5.334468 1.324463,0 1.403808,5.334468 1.397705,-5.334468 1.123047,0 -1.78833,6.835938 -1.324463,0 -1.470947,-5.603028 -1.477051,5.603028 -1.324463,0 -1.78833,-6.835938 z"
       id="path4555"
       inkscape:connector-curvature="0" />
    <path
       d="m 21.721191,95.455742 1.123047,0 1.403809,5.334468 1.397705,-5.334468 1.324463,0 1.403808,5.334468 1.397706,-5.334468 1.123046,0 -1.78833,6.835938 -1.324463,0 -1.470947,-5.603028 -1.477051,5.603028 -1.324463,0 -1.78833,-6.835938 z"
       id="path4557"
       inkscape:connector-curvature="0" />
    <path
       d="m 31.950684,95.455742 1.123046,0 1.403809,5.334468 1.397705,-5.334468 1.324463,0 1.403809,5.334468 1.397705,-5.334468 1.123047,0 -1.788331,6.835938 -1.324462,0 -1.470948,-5.603028 -1.47705,5.603028 -1.324463,0 -1.78833,-6.835938 z"
       id="path4559"
       inkscape:connector-curvature="0" />
    <path
       d="m 41.844482,100.74139 1.287842,0 0,1.55029 -1.287842,0 0,-1.55029 z"
       id="path4561"
       inkscape:connector-curvature="0" />
    <path
       d="m 50.023193,95.657158 0,1.062012 q -0.476074,-0.244141 -0.988769,-0.366211 -0.512695,-0.122071 -1.062012,-0.122071 -0.836182,0 -1.257324,0.256348 -0.415039,0.256348 -0.415039,0.769043 0,0.390625 0.299072,0.616455 0.299072,0.219727 1.202393,0.421143 l 0.384521,0.08545 q 1.196289,0.256348 1.696777,0.726318 0.506592,0.463867 0.506592,1.300045 0,0.95215 -0.756836,1.50757 -0.750732,0.55542 -2.069091,0.55542 -0.549317,0 -1.147461,-0.10986 -0.592041,-0.10376 -1.251221,-0.31738 l 0,-1.15967 q 0.622559,0.32348 1.226807,0.48828 0.604248,0.15869 1.196289,0.15869 0.793457,0 1.220703,-0.26855 0.427246,-0.27466 0.427246,-0.76905 0,-0.45776 -0.311279,-0.701901 -0.305176,-0.244141 -1.348877,-0.469971 l -0.390625,-0.09155 q -1.043702,-0.219727 -1.507569,-0.671387 -0.463867,-0.457764 -0.463867,-1.251221 0,-0.964355 0.683594,-1.489258 0.683594,-0.524902 1.940918,-0.524902 0.622558,0 1.171875,0.09155 0.549316,0.09155 1.013183,0.274658 z"
       id="path4563"
       inkscape:connector-curvature="0" />
    <path
       d="m 58.031006,98.592949 0,0.549316 -5.163574,0 q 0.07324,1.159665 0.6958,1.770015 0.628663,0.60425 1.745606,0.60425 0.646973,0 1.251221,-0.15869 0.610351,-0.15869 1.208496,-0.47607 l 0,1.06201 q -0.604248,0.25635 -1.239014,0.39062 -0.634766,0.13428 -1.287842,0.13428 -1.635742,0 -2.593994,-0.95215 -0.952148,-0.95215 -0.952148,-2.575681 0,-1.678466 0.90332,-2.661133 0.909424,-0.988769 2.44751,-0.988769 1.379394,0 2.178955,0.891113 0.805664,0.88501 0.805664,2.410889 z m -1.123047,-0.32959 q -0.01221,-0.921631 -0.518799,-1.470947 -0.500488,-0.549317 -1.330566,-0.549317 -0.939942,0 -1.507569,0.531006 -0.561523,0.531006 -0.646972,1.495362 l 4.003906,-0.0061 z"
       id="path4565"
       inkscape:connector-curvature="0" />
    <path
       d="m 59.874268,95.455742 1.123046,0 0,6.835938 -1.123046,0 0,-6.835938 z m 0,-2.661133 1.123046,0 0,1.422119 -1.123046,0 0,-1.422119 z"
       id="path4567"
       inkscape:connector-curvature="0" />
    <path
       d="m 64.451904,93.514824 0,1.940918 2.313233,0 0,0.872803 -2.313233,0 0,3.710935 q 0,0.83618 0.22583,1.07422 0.231934,0.23804 0.933838,0.23804 l 1.153565,0 0,0.93994 -1.153565,0 q -1.300049,0 -1.794433,-0.48218 -0.494385,-0.48828 -0.494385,-1.77002 l 0,-3.710935 -0.823975,0 0,-0.872803 0.823975,0 0,-1.940918 1.12915,0 z"
       id="path4569"
       inkscape:connector-curvature="0" />
    <path
       d="m 74.095459,98.592949 0,0.549316 -5.163574,0 q 0.07324,1.159665 0.695801,1.770015 0.628662,0.60425 1.745605,0.60425 0.646973,0 1.251221,-0.15869 0.610351,-0.15869 1.208496,-0.47607 l 0,1.06201 q -0.604248,0.25635 -1.239014,0.39062 -0.634765,0.13428 -1.287842,0.13428 -1.635742,0 -2.593994,-0.95215 -0.952148,-0.95215 -0.952148,-2.575681 0,-1.678466 0.90332,-2.661133 0.909424,-0.988769 2.44751,-0.988769 1.379394,0 2.178955,0.891113 0.805664,0.88501 0.805664,2.410889 z m -1.123047,-0.32959 q -0.01221,-0.921631 -0.518799,-1.470947 -0.500488,-0.549317 -1.330566,-0.549317 -0.939942,0 -1.507568,0.531006 -0.561524,0.531006 -0.646973,1.495362 l 4.003906,-0.0061 z"
       id="path4571"
       inkscape:connector-curvature="0" />
    <path
       d="m 76.311035,101.25408 2.01416,0 0,-6.951903 -2.191162,0.439454 0,-1.123047 2.178955,-0.439453 1.23291,0 0,8.074949 2.014161,0 0,1.0376 -5.249024,0 0,-1.0376 z"
       id="path4573"
       inkscape:connector-curvature="0" />
    <path
       d="m 87.443848,94.253349 -3.112793,4.864502 3.112793,0 0,-4.864502 z m -0.323487,-1.074218 1.550293,0 0,5.93872 1.300049,0 0,1.025389 -1.300049,0 0,2.14844 -1.226806,0 0,-2.14844 -4.11377,0 0,-1.190184 3.790283,-5.773925 z"
       id="path4575"
       inkscape:connector-curvature="0" />
    <path
       d="m 92.015381,100.74139 1.287842,0 0,1.55029 -1.287842,0 0,-1.55029 z"
       id="path4577"
       inkscape:connector-curvature="0" />
    <path
       d="m 100.33447,96.49334 0,-3.698731 1.12305,0 0,9.497071 -1.12305,0 0,-1.02539 q -0.354001,0.61035 -0.897214,0.90942 -0.53711,0.29297 -1.293945,0.29297 -1.239014,0 -2.020264,-0.98877 -0.775147,-0.98877 -0.775147,-2.600096 0,-1.611328 0.775147,-2.600098 0.78125,-0.988769 2.020264,-0.988769 0.756835,0 1.293945,0.299072 0.543213,0.292969 0.897214,0.903321 z m -3.826902,2.386474 q 0,1.239016 0.506592,1.947026 0.512695,0.7019 1.403809,0.7019 0.891113,0 1.403808,-0.7019 0.512693,-0.70801 0.512693,-1.947026 0,-1.239014 -0.512693,-1.940918 -0.512695,-0.708008 -1.403808,-0.708008 -0.891114,0 -1.403809,0.708008 -0.506592,0.701904 -0.506592,1.940918 z"
       id="path4579"
       inkscape:connector-curvature="0" />
    <path
       d="m 109.61792,98.592949 0,0.549316 -5.16357,0 q 0.0732,1.159665 0.6958,1.770015 0.62866,0.60425 1.7456,0.60425 0.64697,0 1.25122,-0.15869 0.61035,-0.15869 1.2085,-0.47607 l 0,1.06201 q -0.60425,0.25635 -1.23901,0.39062 -0.63477,0.13428 -1.28785,0.13428 -1.63574,0 -2.59399,-0.95215 -0.95215,-0.95215 -0.95215,-2.575681 0,-1.678466 0.90332,-2.661133 0.90942,-0.988769 2.44751,-0.988769 1.3794,0 2.17896,0.891113 0.80566,0.88501 0.80566,2.410889 z m -1.12305,-0.32959 q -0.0122,-0.921631 -0.5188,-1.470947 -0.50048,-0.549317 -1.33056,-0.549317 -0.93994,0 -1.50757,0.531006 -0.56152,0.531006 -0.64697,1.495362 l 4.0039,-0.0061 z"
       id="path4581"
       inkscape:connector-curvature="0" />
  </g>
  <flowRoot
     xml:space="preserve"
     id="flowRoot4631"
     style="font-style:normal;font-weight:normal;font-size:108.1521759px;line-height:125%;font-family:sans-serif;text-align:center;letter-spacing:0px;word-spacing:0px;text-anchor:middle;fill:#000000;fill-opacity:1;stroke:none;stroke-width:1px;stroke-linecap:butt;stroke-linejoin:miter;stroke-opacity:1;filter:url(#filter4915)"
     transform="translate(8.75,31.458333)"
     inkscape:export-xdpi="144.31914"
     inkscape:export-ydpi="144.31914"><flowRegion
       id="flowRegion4633"><rect
         id="rect4635"
         width="683.16125"
         height="273.9855"
         x="-293.09448"
         y="-54.754051" /></flowRegion><flowPara
       id="flowPara4637"
       style="font-style:normal;font-variant:normal;font-weight:bold;font-stretch:normal;font-family:Arial;-inkscape-font-specification:'Arial Bold'">14</flowPara></flowRoot>  <rect
     style="fill:none;fill-opacity:1;stroke:#000000;stroke-width:2;stroke-miterlimit:4;stroke-dasharray:none;stroke-opacity:1"
     id="rect4927"
     width="122.10214"
     height="122.10214"
     x="-0.22421052"
     y="-6.9392552"
     ry="0"
     inkscape:export-xdpi="144"
     inkscape:export-ydpi="144" />
</svg>
